<svg width="191" height="192" viewBox="0 0 191 192" fill="none" xmlns="http://www.w3.org/2000/svg">
<path d="M182.348 56.8284C180.852 53.5547 179.166 50.3873 177.32 47.3263C174.479 42.6018 171.281 38.1355 167.696 33.9883C165.143 31.0336 162.401 28.2688 159.507 25.6483C154.737 21.3264 149.549 17.483 143.981 14.1789C141.019 12.4243 137.973 10.814 134.82 9.38603C122.811 3.92477 109.518 0.810547 95.4962 0.810547C81.4741 0.810547 67.9989 3.97793 55.9289 9.49996C52.8374 10.9128 49.8446 12.5002 46.9429 14.2245C41.8916 17.2247 37.1366 20.658 32.7385 24.509C29.1001 27.6915 25.6819 31.1096 22.5599 34.801C19.0354 38.9786 15.9059 43.4905 13.1258 48.2301C11.3407 51.276 9.70002 54.3978 8.25679 57.6411C2.9852 69.4751 0 82.5397 0 96.303C0 110.066 3.04597 123.351 8.40111 135.269C9.81396 138.421 11.4091 141.451 13.141 144.414C15.8299 149.009 18.8379 153.392 22.2409 157.463C25.9553 161.906 30.0571 166.016 34.5084 169.722C38.557 173.087 42.9247 176.057 47.4898 178.731C50.3991 180.432 53.3919 181.997 56.4758 183.387C68.4091 188.757 81.588 191.811 95.4962 191.811C109.404 191.811 122.378 188.81 134.228 183.524C137.365 182.118 140.403 180.539 143.358 178.822C148.425 175.867 153.203 172.487 157.623 168.689C161.383 165.461 164.893 161.952 168.106 158.185C171.585 154.106 174.684 149.715 177.449 145.09C179.249 142.074 180.897 138.968 182.371 135.755C187.863 123.716 191 110.385 191 96.3105C191 82.2358 187.855 68.8903 182.363 56.8436L182.348 56.8284ZM142.865 25.3749C148.539 27.251 153.56 30.1221 157.608 34.1706C161.816 38.3786 164.779 43.5132 166.632 49.2783C167.567 52.2103 168.174 55.3245 168.524 58.5526C169.162 64.4164 168.835 70.6981 167.605 77.2379C167.323 78.7494 167.012 80.2685 166.625 81.8105C166.268 83.2536 165.888 84.712 165.44 86.1704C164.414 89.5504 163.13 92.9609 161.657 96.3865C161.118 97.6322 160.586 98.8703 160.001 100.116C159.378 101.422 158.694 102.729 158.003 104.043C155.983 107.902 153.598 111.73 151.053 115.528C150.286 116.674 149.541 117.814 148.729 118.953C147.87 120.146 146.959 121.323 146.047 122.508C145.926 121.133 145.759 119.743 145.478 118.3C145.219 116.978 144.931 115.641 144.543 114.274C143.442 110.4 141.793 106.375 139.72 102.266C138.109 104.742 136.355 107.21 134.471 109.671C136.492 114.32 137.669 118.702 138.094 122.713C138.193 123.685 138.353 124.68 138.353 125.592C138.353 126.275 138.14 126.769 138.079 127.4C137.783 130.574 136.902 133.225 135.132 135.041C135.071 135.109 135.01 135.177 134.942 135.246C133.157 136.97 130.476 137.828 127.369 138.17C126.617 138.254 125.994 138.489 125.166 138.489C124.391 138.489 123.518 138.352 122.69 138.284C118.725 137.927 114.22 136.78 109.29 134.714C108.273 134.289 107.209 133.757 106.153 133.256C105.128 132.762 104.11 132.276 103.062 131.714C103.973 131.061 104.877 130.392 105.789 129.693C106.662 129.025 107.528 128.311 108.402 127.605C111.683 124.954 114.949 122.136 118.14 118.984C121.467 115.687 124.467 112.269 127.278 108.805C127.984 107.939 128.736 107.081 129.404 106.208C130.111 105.289 130.741 104.362 131.402 103.443C133.172 100.989 134.782 98.5361 136.256 96.0903C136.856 95.0953 137.471 94.1002 138.026 93.1128C138.603 92.057 139.112 91.024 139.636 89.9834C141.649 85.9577 143.259 82.008 144.331 78.2101C144.718 76.8429 145.007 75.5137 145.265 74.192C145.546 72.7565 145.698 71.3816 145.827 70.0144C146.738 71.1918 147.665 72.3539 148.523 73.5464C149.351 74.6934 150.103 75.8555 150.878 77.01C153.491 80.8914 155.93 84.8031 157.996 88.7453C159.272 85.2057 160.297 81.7041 161.049 78.2709C158.368 73.8123 155.345 69.4068 152.018 65.1001C150.863 63.6037 149.625 62.1378 148.387 60.6642C146.1 57.945 143.715 55.2637 141.155 52.6584C140.821 52.3166 140.51 51.952 140.168 51.6102C140.024 51.4659 139.872 51.3368 139.72 51.1924C137.145 48.6403 134.494 46.2553 131.805 43.969C130.339 42.7157 128.865 41.4624 127.369 40.2851C122.796 36.7151 118.117 33.4946 113.377 30.6462C112.116 29.8867 110.855 29.1879 109.587 28.4891C108.25 27.7447 106.913 27.0687 105.576 26.3851C107.034 25.9445 108.493 25.6027 109.951 25.2381C110.787 25.033 111.63 24.7596 112.458 24.5849C113.172 24.433 113.848 24.3722 114.554 24.2431C118.968 23.4152 123.252 22.9215 127.3 22.9215C129.465 22.9215 131.486 23.1873 133.529 23.4228C136.803 23.795 139.925 24.4178 142.842 25.3825L142.865 25.3749ZM71.9412 149.131C70.7486 148.265 69.6016 147.3 68.4243 146.381C69.7991 146.275 71.1892 146.13 72.6324 145.865C73.9541 145.629 75.2834 145.333 76.6507 144.968C80.7525 143.867 85.0594 142.188 89.4726 139.993C86.9887 138.398 84.5125 136.659 82.0438 134.798C77.0077 136.947 72.3969 138.155 68.3559 138.527C67.5052 138.603 66.6088 138.74 65.8113 138.74C65.0137 138.74 64.3908 138.504 63.6464 138.421C60.5169 138.087 57.8127 137.213 56.0201 135.466C55.9669 135.413 55.9137 135.352 55.8606 135.299C54.0907 133.484 53.202 130.825 52.9057 127.65C52.845 127.012 52.6323 126.518 52.6323 125.827C52.6323 124.923 52.7918 123.936 52.8906 122.986C53.3159 118.885 54.5313 114.381 56.6278 109.603C54.744 107.157 52.9969 104.696 51.3866 102.235C49.2369 106.458 47.5506 110.598 46.4264 114.57C46.039 115.938 45.7428 117.275 45.4921 118.596C45.2111 120.024 45.0515 121.407 44.93 122.774C44.0185 121.596 43.0994 120.434 42.2335 119.234C41.4131 118.095 40.6535 116.933 39.8787 115.778C37.2809 111.92 34.8426 108.015 32.7689 104.035C32.0853 102.729 31.4016 101.422 30.7788 100.101C30.1939 98.8551 29.6622 97.6094 29.1228 96.3637C29.6698 95.1028 30.2091 93.8496 30.8091 92.5887C31.4016 91.3354 32.0625 90.0897 32.7157 88.844C34.8502 84.7728 37.372 80.7319 40.0838 76.729C40.8662 75.5669 41.603 74.4047 42.4385 73.2578C43.2969 72.0805 44.2388 70.9259 45.1427 69.7638C45.2642 71.1234 45.4237 72.5058 45.6972 73.9262C45.9479 75.2402 46.2517 76.5695 46.6315 77.9291C47.7253 81.8105 49.366 85.8514 51.4321 89.9682C51.9639 91.024 52.4956 92.0646 53.0805 93.128C53.635 94.1154 54.2426 95.1104 54.8503 96.1055C56.3239 98.5513 57.9495 100.989 59.7193 103.435C60.3802 104.347 61.0106 105.258 61.717 106.17C62.3931 107.043 63.1375 107.902 63.8515 108.767C66.624 112.163 69.5788 115.528 72.8603 118.778C76.1569 122.045 79.5447 124.954 82.9477 127.688C83.806 128.379 84.6644 129.101 85.5303 129.754C86.4494 130.445 87.3609 131.099 88.2877 131.752C90.7639 133.514 93.2326 135.109 95.6937 136.567C96.704 137.167 97.7142 137.76 98.7169 138.299C99.7879 138.877 100.844 139.423 101.9 139.94C106.199 142.059 110.392 143.685 114.387 144.756C115.747 145.12 117.069 145.409 118.375 145.644C119.826 145.91 121.216 146.054 122.599 146.161C121.436 147.072 120.289 148.06 119.112 148.918C117.957 149.761 116.788 150.483 115.625 151.28C111.425 154.151 107.179 156.802 102.902 159.035C101.687 159.673 100.472 160.395 99.2486 160.98C97.9573 161.595 96.666 162.066 95.3747 162.62C94.1214 162.081 92.8604 161.55 91.6147 160.957C90.3689 160.365 89.1308 159.711 87.8927 159.073C83.6693 156.871 79.5219 154.273 75.4277 151.485C74.2655 150.688 73.0958 149.951 71.9564 149.115L71.9412 149.131ZM56.1644 57.1702C56.1644 57.1702 56.2176 57.1246 56.2404 57.0942C58.0482 55.3397 60.7524 54.4738 63.8971 54.1395C64.6263 54.0636 65.234 53.8281 66.0239 53.8281C66.8139 53.8281 67.7482 53.9649 68.6142 54.0484C72.5716 54.4206 77.0684 55.5751 81.9754 57.6487C84.4517 55.7878 86.9356 54.0484 89.4346 52.4609C85.1353 50.3417 80.9424 48.7011 76.9469 47.6149C75.572 47.2427 74.2352 46.9617 72.9135 46.7186C71.4626 46.4452 70.0726 46.3008 68.6977 46.1869C69.8751 45.2678 71.0373 44.326 72.2298 43.4525C73.3768 42.617 74.5466 41.8726 75.7088 41.0826C79.7042 38.3786 83.7453 35.8492 87.8699 33.6997C89.108 33.054 90.3462 32.4084 91.5919 31.816C92.8376 31.2235 94.091 30.6918 95.3443 30.1601C96.6356 30.7146 97.9269 31.1855 99.2258 31.8008C100.441 32.3856 101.657 33.1072 102.879 33.7452C107.057 35.9252 111.212 38.5077 115.314 41.3029C116.476 42.0929 117.654 42.8296 118.808 43.6652C119.993 44.5311 121.148 45.4957 122.317 46.4148C120.943 46.5211 119.545 46.6654 118.094 46.9313C116.772 47.1743 115.443 47.463 114.076 47.8276C110.179 48.8758 106.1 50.4633 101.915 52.4989C100.844 53.023 99.7727 53.5547 98.6941 54.1395C97.6914 54.6864 96.6812 55.2865 95.6709 55.8714C93.2022 57.3221 90.726 58.9172 88.2421 60.6794C87.3154 61.3326 86.3887 61.9706 85.462 62.6694C84.596 63.3303 83.7301 64.0595 82.8642 64.7507C79.408 67.5079 75.967 70.4626 72.6172 73.7819C69.4497 76.9189 66.5785 80.1774 63.8819 83.4663C65.0972 85.8817 66.4949 88.3427 68.1052 90.8417C71.1284 86.9527 74.5086 83.1093 78.223 79.433C82.2565 75.4377 86.3127 71.9665 90.3158 68.9283C91.1893 68.2674 92.0476 67.6598 92.9136 67.0445C93.8251 66.3913 94.729 65.7761 95.6329 65.176C96.5369 65.7761 97.4408 66.3837 98.3523 67.0445C99.2106 67.6598 100.069 68.2826 100.927 68.9435C104.847 71.9361 108.812 75.3162 112.747 79.2128C116.522 82.9498 119.948 86.854 123.009 90.7961C124.619 88.2896 126.017 85.821 127.224 83.398C124.49 80.0559 121.581 76.7518 118.36 73.5616C115.117 70.3562 111.79 67.4851 108.447 64.7962C107.566 64.0898 106.693 63.3607 105.819 62.6922C104.9 62.001 103.988 61.3402 103.069 60.687C104.133 60.1173 105.151 59.654 106.184 59.1603C107.24 58.659 108.311 58.1197 109.336 57.6943C114.137 55.6966 118.52 54.6029 122.393 54.2459C123.252 54.1699 124.148 54.0332 124.946 54.0332C125.743 54.0332 126.351 54.2687 127.088 54.3446C130.232 54.6788 132.937 55.5523 134.737 57.2993C134.79 57.3525 134.843 57.4133 134.896 57.4664C136.674 59.2818 137.563 61.9479 137.851 65.138C137.912 65.7685 138.125 66.2546 138.125 66.9382C138.125 67.8421 137.965 68.8295 137.859 69.7866C137.456 73.7135 136.294 77.9975 134.357 82.5472C133.924 83.5651 133.4 84.5981 132.899 85.6311C132.397 86.6641 131.926 87.6895 131.357 88.7301C130.027 91.1683 128.508 93.6369 126.837 96.1131C126.252 96.979 125.607 97.8449 124.984 98.7108C124.33 99.6146 123.73 100.526 123.031 101.43C119.917 105.486 116.393 109.489 112.519 113.325C108.652 117.153 104.763 120.472 100.92 123.427C100.061 124.088 99.2106 124.726 98.3599 125.341C97.4484 126.002 96.5444 126.602 95.6405 127.21C94.7366 126.61 93.8403 126.002 92.9288 125.349C92.0704 124.733 91.2121 124.111 90.3462 123.457C86.3963 120.45 82.4084 117.047 78.4357 113.112C74.6226 109.337 71.1588 105.395 68.0748 101.407C67.3836 100.511 66.7759 99.6147 66.1303 98.7184C65.4998 97.8525 64.8618 96.9865 64.2769 96.1206C62.6058 93.6597 61.0638 91.2063 59.7269 88.7833C59.1496 87.7351 58.6939 86.7173 58.1849 85.6842C57.676 84.6512 57.1291 83.6106 56.6961 82.6004C54.6832 77.9443 53.4982 73.5464 53.0881 69.5359C52.9893 68.5941 52.8298 67.6218 52.8298 66.7255C52.8298 66.0343 53.0425 65.533 53.1032 64.9026C53.3995 61.7124 54.2882 59.0463 56.0732 57.231C56.096 57.2082 56.1188 57.1778 56.1416 57.155L56.1644 57.1702ZM22.165 59.1603C22.4764 55.8486 23.1448 52.7268 24.0564 49.7645C25.9098 43.7259 28.9102 38.4318 33.1639 34.1706C37.3872 29.9474 42.5905 27.0611 48.3786 25.2153C51.2954 24.2887 54.3794 23.681 57.5924 23.3316C59.5598 23.119 61.512 22.8607 63.5705 22.8607C67.5963 22.8607 71.812 23.4 76.0962 24.1975C79.5371 22.1999 83.0313 20.4073 86.5482 18.7818C83.0616 17.7716 79.6131 16.9665 76.2025 16.3892C73.5439 15.9411 70.9309 15.6448 68.3483 15.4701C66.7 15.3562 65.0213 15.1511 63.4185 15.1511C62.2336 15.1511 61.1322 15.3638 59.9776 15.4246C62.5526 14.2928 65.1808 13.2826 67.8774 12.3939C70.5283 11.5204 73.2325 10.776 75.9898 10.1532C82.2793 8.72521 88.789 7.91248 95.5038 7.91248C102.219 7.91248 108.493 8.69482 114.684 10.0696C117.41 10.6773 120.099 11.3989 122.728 12.2496C125.477 13.1459 128.166 14.1637 130.795 15.3182C129.64 15.2575 128.561 15.0372 127.376 15.0372C125.713 15.0372 123.973 15.2043 122.257 15.3258C119.689 15.5081 117.069 15.8347 114.395 16.2905C113.202 16.4955 112.048 16.6095 110.84 16.8677C108.516 17.369 106.176 17.9995 103.837 18.6907C102.371 19.1236 100.905 19.6477 99.4385 20.1491C97.9953 20.6504 96.552 21.0985 95.1164 21.6682C91.6982 23.0202 88.318 24.6305 84.9454 26.3623C83.6997 27.0003 82.454 27.646 81.2234 28.3372C79.8941 29.0815 78.5724 29.8639 77.2583 30.6614C72.6324 33.4642 68.0824 36.6012 63.6692 40.0496C62.1652 41.2194 60.7144 42.4802 59.2484 43.7259C56.5746 45.9894 53.9464 48.3593 51.3942 50.8658C51.1359 51.0937 50.8321 51.2532 50.5814 51.5039C50.3079 51.7773 50.1104 52.1115 49.8598 52.4002C47.2923 55.0055 44.8996 57.6791 42.6133 60.3908C41.3751 61.8491 40.1294 63.3075 38.9748 64.7962C35.5262 69.2397 32.4119 73.8047 29.647 78.4076C28.9102 79.6381 28.143 80.8534 27.4517 82.0915C26.7073 83.4359 26.0465 84.788 25.3629 86.14C24.9147 84.6664 24.5653 83.1929 24.2083 81.7193C24.0108 80.9218 23.7525 80.1166 23.5778 79.3191C23.4259 78.5975 23.3499 77.9063 23.2132 77.1923C22.0206 70.8044 21.6408 64.7507 22.1726 59.1755L22.165 59.1603ZM122.211 180.531C119.583 181.367 116.902 182.065 114.175 182.65C108.143 183.957 101.9 184.686 95.4886 184.686C89.0776 184.686 82.5679 183.919 76.4152 182.559C73.6655 181.951 70.9689 181.23 68.3179 180.372C65.6366 179.506 63.0083 178.518 60.4409 177.409C61.4436 177.455 62.3855 177.645 63.3958 177.645C65.1504 177.645 66.9734 177.432 68.7737 177.303C71.3563 177.113 73.9693 176.794 76.6203 176.323C79.8865 175.753 83.1908 174.986 86.5254 174.014C83.0085 172.381 79.5219 170.596 76.0886 168.598C71.8045 169.396 67.5887 169.935 63.5629 169.935C61.6715 169.935 59.894 169.684 58.0786 169.502C54.8883 169.191 51.8347 168.613 48.9331 167.732C42.9247 165.902 37.5164 162.985 33.1487 158.625C28.7127 154.189 25.6895 148.705 23.874 142.568C23.0081 139.644 22.408 136.583 22.1118 133.377C21.6029 127.787 21.9751 121.817 23.1296 115.641C21.1091 112.163 19.3165 108.638 17.6758 105.084C16.6959 108.433 15.9895 111.737 15.4198 115.003C14.9488 117.662 14.6222 120.275 14.4323 122.857C14.212 125.683 14.174 128.448 14.288 131.159C13.1866 128.592 12.2067 125.964 11.3483 123.283C10.5128 120.677 9.80637 118.011 9.21388 115.307C7.86181 109.178 7.10221 102.828 7.10221 96.2954C7.10221 89.7631 7.82382 83.6714 9.12272 77.6557C9.70761 74.9288 10.4064 72.2476 11.242 69.6195C12.0927 66.9306 13.0574 64.2949 14.1588 61.7276C14.0449 64.4316 14.0981 67.2116 14.3184 70.0676C14.5234 72.6425 14.8577 75.263 15.3362 77.9443C15.5185 78.9545 15.6249 79.9419 15.8451 80.9674C16.3465 83.284 16.9693 85.6159 17.6606 87.9325C18.0859 89.3833 18.6025 90.8341 19.1038 92.2773C19.5975 93.7052 20.0457 95.1332 20.6078 96.5536C21.9523 99.9792 23.555 103.367 25.2869 106.739C25.9401 108.023 26.6086 109.299 27.315 110.568C28.0746 111.927 28.8722 113.272 29.6849 114.616C32.3891 119.082 35.4275 123.465 38.7317 127.726C39.8939 129.23 41.132 130.688 42.3702 132.154C44.6642 134.881 47.0645 137.555 49.6015 140.145C49.9357 140.487 50.2396 140.851 50.5814 141.186C50.7181 141.322 50.87 141.451 51.0144 141.596C53.5818 144.14 56.2328 146.525 58.9293 148.827C60.3954 150.072 61.8538 151.333 63.3502 152.511C67.8546 156.05 72.5033 159.271 77.2355 162.134C78.5572 162.932 79.8713 163.714 81.2006 164.451C82.4388 165.142 83.6845 165.795 84.9302 166.434C88.2952 168.158 91.683 169.768 95.0936 171.12C96.5292 171.69 97.9725 172.138 99.4157 172.639C100.882 173.148 102.34 173.672 103.814 174.105C106.146 174.796 108.485 175.434 110.817 175.928C111.858 176.148 112.861 176.247 113.894 176.429C116.56 176.908 119.18 177.25 121.748 177.455C123.639 177.599 125.538 177.774 127.369 177.774C128.364 177.774 129.268 177.576 130.248 177.538C127.635 178.662 124.953 179.665 122.211 180.531ZM181.627 115.809C181.019 118.513 180.297 121.163 179.447 123.769C178.565 126.442 177.578 129.063 176.454 131.623C176.59 128.919 176.56 126.154 176.355 123.336C176.173 120.761 175.869 118.148 175.413 115.497C174.828 112.034 174.091 108.532 173.051 104.985C171.418 108.54 169.617 112.072 167.605 115.55C168.812 121.984 169.154 128.174 168.554 133.955C168.227 137.16 167.627 140.244 166.716 143.16C164.878 149.062 161.892 154.326 157.601 158.618C153.415 162.81 148.166 165.735 142.234 167.596C139.332 168.507 136.248 169.107 132.997 169.441C131.136 169.639 129.313 169.897 127.346 169.897C123.282 169.897 118.99 169.396 114.554 168.56C113.848 168.431 113.18 168.37 112.466 168.218C111.63 168.036 110.787 167.77 109.951 167.565C108.493 167.201 107.042 166.859 105.576 166.418C106.921 165.742 108.25 165.059 109.587 164.314C110.855 163.608 112.116 162.909 113.377 162.157C118.208 159.256 122.971 155.959 127.627 152.306C129.131 151.121 130.605 149.875 132.078 148.607C134.79 146.29 137.471 143.882 140.069 141.292C140.1 141.262 140.138 141.231 140.168 141.193C140.593 140.768 140.973 140.32 141.398 139.887C143.951 137.274 146.336 134.593 148.615 131.866C149.853 130.385 151.083 128.911 152.238 127.4C155.474 123.184 158.421 118.885 161.042 114.525C161.847 113.188 162.675 111.859 163.419 110.514C164.141 109.223 164.771 107.924 165.432 106.618C167.156 103.215 168.744 99.8046 170.073 96.4017C170.635 94.9737 171.099 93.5609 171.585 92.1329C172.079 90.6974 172.618 89.2542 173.043 87.8186C174.099 84.2259 174.836 80.6863 175.428 77.1847C175.876 74.5186 176.188 71.8906 176.363 69.2928C176.553 66.4597 176.583 63.6797 176.439 60.9604C177.563 63.5354 178.565 66.1635 179.447 68.8599C180.305 71.4728 181.027 74.1465 181.642 76.8657C183.055 83.1245 183.867 89.6112 183.867 96.303C183.867 102.995 183.047 109.535 181.627 115.816V115.809Z" fill="black"/>
</svg>
